<?xml version="1.0" encoding="UTF-8" standalone="no"?>
<!-- Created with Inkscape (http://www.inkscape.org/) -->

<svg
   width="16"
   height="16"
   viewBox="0 0 16 16"
   version="1.1"
   id="svg5"
   inkscape:version="1.1.1 (3bf5ae0d25, 2021-09-20)"
   sodipodi:docname="RJ45_female_16x16.svg"
   xmlns:inkscape="http://www.inkscape.org/namespaces/inkscape"
   xmlns:sodipodi="http://sodipodi.sourceforge.net/DTD/sodipodi-0.dtd"
   xmlns="http://www.w3.org/2000/svg"
   xmlns:svg="http://www.w3.org/2000/svg">
  <sodipodi:namedview
     id="namedview7"
     pagecolor="#ffffff"
     bordercolor="#666666"
     borderopacity="1.0"
     inkscape:pageshadow="2"
     inkscape:pageopacity="0.0"
     inkscape:pagecheckerboard="0"
     inkscape:document-units="px"
     showgrid="false"
     inkscape:zoom="38.581514"
     inkscape:cx="24.169606"
     inkscape:cy="12.013526"
     inkscape:window-width="2560"
     inkscape:window-height="1369"
     inkscape:window-x="2552"
     inkscape:window-y="-8"
     inkscape:window-maximized="1"
     inkscape:current-layer="layer1" />
  <defs
     id="defs2">
    <filter
       id="filter3834"
       color-interpolation-filters="sRGB"
       x="-0.063742863"
       y="-0.089814388"
       width="1.1274857"
       height="1.1796287">
      <feGaussianBlur
         id="feGaussianBlur3836"
         stdDeviation="2.5012493" />
    </filter>
    <filter
       id="filter3844"
       color-interpolation-filters="sRGB"
       x="-0.011861177"
       y="-0.01572322"
       width="1.0237224"
       height="1.0314546">
      <feGaussianBlur
         id="feGaussianBlur3846"
         stdDeviation="0.50491261" />
    </filter>
    <filter
       id="filter3848"
       color-interpolation-filters="sRGB"
       x="-0.011861177"
       y="-0.01572322"
       width="1.0237224"
       height="1.0314546">
      <feGaussianBlur
         id="feGaussianBlur3850"
         stdDeviation="0.50491261" />
    </filter>
    <linearGradient
       id="linearGradient3876"
       y2="508.27"
       gradientUnits="userSpaceOnUse"
       x2="521.18"
       gradientTransform="matrix(1.0228,0,0,1,-5.193,0)"
       y1="575.22"
       x1="521.18">
      <stop
         id="stop3854"
         style="stop-color:#b6b39e"
         offset="0" />
      <stop
         id="stop3856"
         style="stop-color:#575048"
         offset="1" />
    </linearGradient>
    <filter
       id="filter3878"
       color-interpolation-filters="sRGB"
       x="-0.01234623"
       y="-0.016604495"
       width="1.0247399"
       height="1.033209">
      <feGaussianBlur
         id="feGaussianBlur3880"
         stdDeviation="0.4875" />
    </filter>
    <filter
       id="filter3926"
       height="1.1634244"
       width="1.2757782"
       color-interpolation-filters="sRGB"
       y="-0.081712201"
       x="-0.13788909">
      <feGaussianBlur
         id="feGaussianBlur3928"
         stdDeviation="0.23214777" />
    </filter>
    <filter
       id="filter3930"
       height="1.1634244"
       width="1.2757782"
       color-interpolation-filters="sRGB"
       y="-0.081712201"
       x="-0.13788909">
      <feGaussianBlur
         id="feGaussianBlur3932"
         stdDeviation="0.23214777" />
    </filter>
    <filter
       id="filter3934"
       height="1.1634244"
       width="1.2757782"
       color-interpolation-filters="sRGB"
       y="-0.081712201"
       x="-0.13788909">
      <feGaussianBlur
         id="feGaussianBlur3936"
         stdDeviation="0.23214777" />
    </filter>
    <filter
       id="filter3938"
       height="1.1634244"
       width="1.2757782"
       color-interpolation-filters="sRGB"
       y="-0.081712201"
       x="-0.13788909">
      <feGaussianBlur
         id="feGaussianBlur3940"
         stdDeviation="0.23214777" />
    </filter>
    <filter
       id="filter3942"
       height="1.1634244"
       width="1.2757782"
       color-interpolation-filters="sRGB"
       y="-0.081712201"
       x="-0.13788909">
      <feGaussianBlur
         id="feGaussianBlur3944"
         stdDeviation="0.23214777" />
    </filter>
    <filter
       id="filter3946"
       height="1.1634244"
       width="1.2757782"
       color-interpolation-filters="sRGB"
       y="-0.081712201"
       x="-0.13788909">
      <feGaussianBlur
         id="feGaussianBlur3948"
         stdDeviation="0.23214777" />
    </filter>
    <filter
       id="filter3950"
       height="1.1634244"
       width="1.2757782"
       color-interpolation-filters="sRGB"
       y="-0.081712201"
       x="-0.13788909">
      <feGaussianBlur
         id="feGaussianBlur3952"
         stdDeviation="0.23214777" />
    </filter>
    <filter
       id="filter3954"
       height="1.1634244"
       width="1.2757782"
       color-interpolation-filters="sRGB"
       y="-0.081712201"
       x="-0.13788909">
      <feGaussianBlur
         id="feGaussianBlur3956"
         stdDeviation="0.23214777" />
    </filter>
    <filter
       id="filter3958"
       height="1.1634244"
       width="1.2757782"
       color-interpolation-filters="sRGB"
       y="-0.081712201"
       x="-0.13788909">
      <feGaussianBlur
         id="feGaussianBlur3960"
         stdDeviation="0.23214777" />
    </filter>
    <filter
       id="filter3962"
       height="1.1634244"
       width="1.2757782"
       color-interpolation-filters="sRGB"
       y="-0.081712201"
       x="-0.13788909">
      <feGaussianBlur
         id="feGaussianBlur3964"
         stdDeviation="0.23214777" />
    </filter>
    <filter
       id="filter3966"
       height="1.1634244"
       width="1.2757782"
       color-interpolation-filters="sRGB"
       y="-0.081712201"
       x="-0.13788909">
      <feGaussianBlur
         id="feGaussianBlur3968"
         stdDeviation="0.23214777" />
    </filter>
    <filter
       id="filter3976"
       color-interpolation-filters="sRGB"
       x="-0.012205377"
       y="-0.01446543"
       width="1.0244108"
       height="1.0289309">
      <feGaussianBlur
         id="feGaussianBlur3978"
         stdDeviation="0.61069603" />
    </filter>
    <filter
       id="filter3984"
       color-interpolation-filters="sRGB"
       x="-0.012186996"
       y="-0.014490308"
       width="1.024374"
       height="1.0289806">
      <feGaussianBlur
         id="feGaussianBlur3986"
         stdDeviation="0.60978336" />
    </filter>
    <filter
       id="filter4077"
       color-interpolation-filters="sRGB"
       x="-0.02420679"
       y="-0.045188303"
       width="1.0484136"
       height="1.0903766">
      <feGaussianBlur
         id="feGaussianBlur4079"
         stdDeviation="0.13288446" />
    </filter>
    <filter
       id="filter4085"
       color-interpolation-filters="sRGB"
       x="-0.027353854"
       y="-0.051909258"
       width="1.0547077"
       height="1.1038185">
      <feGaussianBlur
         id="feGaussianBlur4087"
         stdDeviation="0.1278842" />
    </filter>
    <filter
       id="filter4089"
       color-interpolation-filters="sRGB"
       x="-0.033421014"
       y="-0.062389063"
       width="1.066842"
       height="1.1247781">
      <feGaussianBlur
         id="feGaussianBlur4091"
         stdDeviation="0.19932669" />
    </filter>
    <radialGradient
       id="radialGradient4101"
       gradientUnits="userSpaceOnUse"
       cy="588.06"
       cx="441.45"
       gradientTransform="matrix(0.77449,0.84456,-0.78642,0.72117,560.79,-204.87)"
       r="8.8334">
      <stop
         id="stop4097"
         style="stop-color:#ffffff;stop-opacity:.48428"
         offset="0" />
      <stop
         id="stop4099"
         style="stop-color:#dada00;stop-opacity:.49686"
         offset="1" />
    </radialGradient>
    <radialGradient
       id="radialGradient4111"
       gradientUnits="userSpaceOnUse"
       cy="588.06"
       cx="441.45"
       gradientTransform="matrix(0.77449,0.84456,-0.78642,0.72117,663.86,-204.87)"
       r="8.8334">
      <stop
         id="stop4115"
         style="stop-color:#ffffff;stop-opacity:.48428"
         offset="0" />
      <stop
         id="stop4117"
         style="stop-color:#19da00;stop-opacity:.49686"
         offset="1" />
    </radialGradient>
    <filter
       id="filter4149"
       height="1.2748479"
       width="1.1448325"
       color-interpolation-filters="sRGB"
       y="-0.13742396"
       x="-0.072416274">
      <feGaussianBlur
         id="feGaussianBlur4151"
         stdDeviation="0.50540527" />
    </filter>
  </defs>
  <g
     inkscape:label="Ebene 1"
     inkscape:groupmode="layer"
     id="layer1">
    <g
       id="layer2"
       transform="matrix(0.11445073,0,0,0.11445427,-48.844318,-54.571717)">
      <path
         id="rect2997"
         style="color:#000000;fill:url(#linearGradient3876)"
         d="m 428.2,490.25 h 136.51 v 113.1 H 428.2 Z" />
      <rect
         id="rect4043"
         style="color:#000000;fill:#ffff00;stroke:#4d4d4d;stroke-width:0.30251;stroke-linecap:square;stroke-linejoin:bevel;filter:url(#filter4085)"
         ry="1.4711"
         height="8.8264999"
         width="16.75"
         y="587.64001"
         x="436.14999" />
      <rect
         id="rect4119"
         style="color:#000000;opacity:0.2;fill:#00ff00;filter:url(#filter4149)"
         transform="matrix(1.2569,0,0,1.3656,-11.388,-216.43)"
         ry="1.4711"
         width="16.75"
         y="587.64001"
         x="436.14999"
         height="8.8264999" />
      <rect
         id="rect4093"
         style="color:#000000;fill:url(#radialGradient4101);stroke:#4d4d4d;stroke-width:0.30251;stroke-linecap:square;stroke-linejoin:bevel;filter:url(#filter4085)"
         ry="1.4711"
         height="8.8264999"
         width="16.75"
         y="587.64001"
         x="436.14999" />
      <rect
         id="rect4107"
         style="color:#000000;fill:#00f311;stroke:#4d4d4d;stroke-width:0.30251;stroke-linecap:square;stroke-linejoin:bevel;filter:url(#filter4085)"
         ry="1.4711"
         height="8.8264999"
         width="16.75"
         y="587.64001"
         x="539.21997" />
      <rect
         id="rect4109"
         style="color:#000000;fill:url(#radialGradient4111);stroke:#4d4d4d;stroke-width:0.30251;stroke-linecap:square;stroke-linejoin:bevel;filter:url(#filter4085)"
         ry="1.4711"
         height="8.8264999"
         width="16.75"
         y="587.64001"
         x="539.21997" />
      <path
         id="path3015"
         style="color:#000000;fill:#1b1b1b;stroke:#000000;stroke-width:0.42776;filter:url(#filter3878)"
         d="m 433.47,509.19 v 23.875 l 2.125,0.875 v 17.5 l -1.9375,0.15625 v 22.969 l 21.625,1.0312 v 10.531 l 11.812,0.21875 v 6.1875 h 43.406 v -6.1875 l 11.312,-0.21875 v -10.531 l 22.656,-1.0312 v -22.969 L 543.2497,551.44 v -17.5 l 1.875,-0.875 V 509.19 h -111.66 z"
         transform="translate(7.5)" />
      <path
         id="path3019"
         style="color:#000000;fill:#000000;stroke:#000000;stroke-width:0.42776;filter:url(#filter3834)"
         d="m 448.03,516.25 v 12.625 c 1.3432,1.3148 2.1274,3.183 2.125,5.0625 v 17.5 c 0.003,1.7914 -0.70558,3.5744 -1.9375,4.875 v 11.5 l 20.412,0.71447 1.2128,10.661 10.936,0.34624 0.84533,5.935 h 29.375 l 0.56155,-6.6926 10.688,0.41138 1.1022,-10.029 21.554,-1.3458 v -12.406 c -0.78829,-1.1625 -1.2187,-2.5642 -1.2188,-3.9688 v -17.5 c 0.004,-1.752 0.68678,-3.4938 1.875,-4.7812 v -12.906 z" />
      <path
         id="path3840"
         style="color:#000000;fill:none;stroke:#101010;stroke-width:0.30482;stroke-linecap:square;stroke-linejoin:bevel;filter:url(#filter3844)"
         d="m 433.31,507.5 a 1.6942,1.6942 0 0 0 -1.5312,1.6875 v 23.875 a 1.6942,1.6942 0 0 0 1.0312,1.5625 l 1.0938,0.4375 v 14.812 l -0.375,0.0313 a 1.6942,1.6942 0 0 0 -1.5625,1.6875 v 22.969 a 1.6942,1.6942 0 0 0 1.5938,1.6875 l 20.031,0.96875 v 8.9062 a 1.6942,1.6942 0 0 0 1.6562,1.6875 l 10.156,0.1875 v 4.5312 a 1.6942,1.6942 0 0 0 1.6875,1.6875 h 43.406 a 1.6942,1.6942 0 0 0 1.6875,-1.6875 v -4.5312 l 9.6562,-0.1875 a 1.6942,1.6942 0 0 0 1.64,-1.69 v -8.9062 l 21.031,-0.96875 a 1.6942,1.6942 0 0 0 1.625,-1.6875 v -22.969 a 1.6942,1.6942 0 0 0 -1.2188,-1.625 v -14.938 l 0.90625,-0.4375 a 1.6942,1.6942 0 0 0 0.96875,-1.5312 v -23.875 a 1.6942,1.6942 0 0 0 -1.7,-1.68 h -111.66 a 1.6942,1.6942 0 0 0 -0.15625,0 z"
         transform="matrix(0.98292,0,0,0.97699,16.354,11.674)" />
      <path
         id="rect3021"
         style="color:#000000;fill:#000000;filter:url(#filter3966)"
         d="m 452.47,512.44 h 4.0406 v 6.8185 H 452.47 Z" />
      <path
         id="rect3023"
         style="color:#000000;fill:#000000;filter:url(#filter3962)"
         d="m 460.47,512.44 h 4.0406 v 6.8185 H 460.47 Z" />
      <path
         id="rect3025"
         style="color:#000000;fill:#000000;filter:url(#filter3958)"
         d="m 468.47,512.44 h 4.0406 v 6.8185 H 468.47 Z" />
      <path
         id="rect3027"
         style="color:#000000;fill:#000000;filter:url(#filter3954)"
         d="m 476.47,512.44 h 4.0406 v 6.8185 H 476.47 Z" />
      <path
         id="rect3029"
         style="color:#000000;fill:#000000;filter:url(#filter3950)"
         d="m 484.47,512.44 h 4.0406 v 6.8185 H 484.47 Z" />
      <path
         id="rect3031"
         style="color:#000000;fill:#000000;filter:url(#filter3946)"
         d="m 494.47,512.44 h 4.0406 v 6.8185 H 494.47 Z" />
      <path
         id="rect3033"
         style="color:#000000;fill:#000000;filter:url(#filter3942)"
         d="m 502.47,512.44 h 4.0406 v 6.8185 H 502.47 Z" />
      <path
         id="rect3037"
         style="color:#000000;fill:#000000;filter:url(#filter3938)"
         d="m 510.47,512.44 h 4.0406 v 6.8185 H 510.47 Z" />
      <path
         id="rect3039"
         style="color:#000000;fill:#000000;filter:url(#filter3934)"
         d="m 518.47,512.44 h 4.0406 v 6.8185 H 518.47 Z" />
      <path
         id="path3842"
         style="color:#000000;fill:none;stroke:#f4f4f4;stroke-width:0.30482;stroke-linecap:square;stroke-linejoin:bevel;filter:url(#filter3848)"
         d="m 433.31,507.5 a 1.6942,1.6942 0 0 0 -1.5312,1.6875 v 23.875 a 1.6942,1.6942 0 0 0 1.0312,1.5625 l 1.0938,0.4375 v 14.812 l -0.375,0.0313 a 1.6942,1.6942 0 0 0 -1.5625,1.6875 v 22.969 a 1.6942,1.6942 0 0 0 1.5938,1.6875 l 20.031,0.96875 v 8.9062 a 1.6942,1.6942 0 0 0 1.6562,1.6875 l 10.156,0.1875 v 4.5312 a 1.6942,1.6942 0 0 0 1.6875,1.6875 h 43.406 a 1.6942,1.6942 0 0 0 1.6875,-1.6875 v -4.5312 l 9.6562,-0.1875 a 1.6942,1.6942 0 0 0 1.64,-1.69 v -8.9062 l 21.031,-0.96875 a 1.6942,1.6942 0 0 0 1.625,-1.6875 v -22.969 a 1.6942,1.6942 0 0 0 -1.2188,-1.625 v -14.938 l 0.90625,-0.4375 a 1.6942,1.6942 0 0 0 0.96875,-1.5312 v -23.875 a 1.6942,1.6942 0 0 0 -1.7,-1.68 h -111.66 a 1.6942,1.6942 0 0 0 -0.15625,0 z"
         transform="matrix(0.99142,0,0,0.97698,11.196,13.182)" />
      <path
         id="rect3041"
         style="color:#000000;fill:#000000;filter:url(#filter3930)"
         d="m 526.47,512.44 h 4.0406 v 6.8185 H 526.47 Z" />
      <path
         id="rect3043"
         style="color:#000000;fill:#000000;filter:url(#filter3926)"
         d="m 534.47,512.44 h 4.0406 v 6.8185 H 534.47 Z" />
      <path
         id="rect3970"
         style="color:#000000;fill:none;stroke:#101010;stroke-width:0.30235;filter:url(#filter3984)"
         d="M 431.45,490.41 H 563.94 V 601.84 H 431.45 Z"
         transform="matrix(1.0228,0,0,1,-12.864,0)" />
      <path
         id="rect3974"
         style="color:#000000;fill:none;stroke:#ffffff;stroke-width:0.30284;filter:url(#filter3976)"
         d="M 432.41,491.19 H 564.9 V 602.98 H 432.41 Z"
         transform="matrix(1.0228,0,0,1,-12.864,0)" />
      <rect
         id="rect4045"
         style="color:#000000;fill:none;stroke:#000000;stroke-width:0.2;stroke-linecap:square;stroke-linejoin:bevel;filter:url(#filter4077)"
         ry="1.5451"
         height="9.2706003"
         width="17.306"
         y="587.41998"
         x="435.82999" />
      <rect
         id="rect4047"
         style="color:#000000;fill:none;stroke:#ffffff;stroke-width:0.2;stroke-linecap:square;stroke-linejoin:bevel;filter:url(#filter4089)"
         ry="1.5451"
         height="9.2706003"
         width="17.306"
         y="587.71997"
         x="436.17999" />
      <rect
         id="rect4103"
         style="color:#000000;fill:none;stroke:#000000;stroke-width:0.2;stroke-linecap:square;stroke-linejoin:bevel;filter:url(#filter4077)"
         ry="1.5451"
         height="9.2706003"
         width="17.306"
         y="587.41998"
         x="538.90002" />
      <rect
         id="rect4105"
         style="color:#000000;fill:none;stroke:#ffffff;stroke-width:0.2;stroke-linecap:square;stroke-linejoin:bevel;filter:url(#filter4089)"
         ry="1.5451"
         height="9.2706003"
         width="17.306"
         y="587.71997"
         x="539.26001" />
      <rect
         id="rect4153"
         style="color:#000000;opacity:0.2;fill:#ffff00;filter:url(#filter4149)"
         transform="matrix(1.2569,0,0,1.3656,-114.17,-216.43)"
         ry="1.4711"
         width="16.75"
         y="587.64001"
         x="436.14999"
         height="8.8264999" />
    </g>
  </g>
</svg>
